<svg xmlns="http://www.w3.org/2000/svg" viewBox="0 0 1600 900" aria-labelledby="title desc"><defs><linearGradient id="a" x1="0" x2="1" y1="0" y2="1"><stop offset="0%" stop-color="#10222a"/><stop offset="55%" stop-color="#1f5f68"/><stop offset="100%" stop-color="#7cd1b8"/></linearGradient><linearGradient id="b" x1="0" x2="1"><stop offset="0%" stop-color="#e9fbf6" stop-opacity=".95"/><stop offset="100%" stop-color="#d7f2f2" stop-opacity=".92"/></linearGradient></defs><path fill="url(#a)" d="M0 0h1600v900H0z"/><rect x="64" y="72" width="1472" height="756" rx="36" fill="#10282d" fill-opacity=".24" stroke="#c7f2e6" stroke-opacity=".18"/><rect x="108" y="104" width="760" height="156" rx="30" fill="#12363d" fill-opacity=".72" stroke="#c9f4e8" stroke-opacity=".24"/><text x="148" y="174" fill="#f4fffc" font-size="70" font-weight="700" font-family="Arial, Helvetica, sans-serif">CNN Basics</text><text x="148" y="223" fill="#c4eee1" font-size="28" font-family="Arial, Helvetica, sans-serif">image tensor  →  convolution kernel  →  feature maps</text><g transform="translate(126 310)"><rect width="320" height="320" rx="30" fill="url(#b)"/><g stroke="#8eb4b8" stroke-width="2"><path d="M64 0v320M128 0v320M192 0v320M256 0v320M0 64h320M0 128h320M0 192h320M0 256h320"/></g><g fill="#62c5b2"><path opacity=".88" d="M0 0h64v64H0z"/><path opacity=".56" d="M64 64h64v64H64z"/><path opacity=".8" d="M128 64h64v64h-64z"/><path opacity=".68" d="M128 128h64v64h-64z"/><path opacity=".9" d="M192 192h64v64h-64z"/><path opacity=".72" d="M256 256h64v64h-64z"/></g><rect x="64" y="64" width="192" height="192" rx="18" fill="none" stroke="#5aa5bf" stroke-width="10"/><text y="366" fill="#ddf7ef" font-size="26" font-family="Arial, Helvetica, sans-serif">input image / local receptive field</text></g><g stroke="#c3eee4" stroke-width="10" stroke-linecap="round" fill="none" opacity=".78"><path d="M470 468h180M890 468h188"/></g><g transform="translate(670 340)"><rect width="190" height="190" rx="26" fill="#e8f7f8" opacity=".96"/><g stroke="#9fbcc0" stroke-width="2"><path d="M63 0v190M126 0v190M0 63h190M0 126h190"/></g><g fill="#5ba7c8"><path opacity=".65" d="M0 0h63v63H0z"/><path opacity=".86" d="M63 63h63v63H63z"/><path opacity=".72" d="M126 126h63v63h-63z"/></g><text x="95" y="236" text-anchor="middle" fill="#ddf7ef" font-size="26" font-family="Arial, Helvetica, sans-serif">3 × 3 kernel</text></g><g transform="translate(1098 294)"><rect width="346" height="346" rx="30" fill="#0d3437" fill-opacity=".88" stroke="#95e1cf" stroke-opacity=".34"/><g fill="#6fd1ba"><rect x="34" y="42" width="78" height="78" rx="16" opacity=".44"/><rect x="132" y="42" width="78" height="78" rx="16" opacity=".72"/><rect x="230" y="42" width="78" height="78" rx="16" opacity=".92"/><rect x="34" y="140" width="78" height="78" rx="16" opacity=".62"/><rect x="132" y="140" width="78" height="78" rx="16" opacity=".96"/><rect x="230" y="140" width="78" height="78" rx="16" opacity=".56"/><rect x="34" y="238" width="78" height="78" rx="16" opacity=".4"/><rect x="132" y="238" width="78" height="78" rx="16" opacity=".76"/><rect x="230" y="238" width="78" height="78" rx="16" opacity=".84"/></g><text x="34" y="384" fill="#ddf7ef" font-size="26" font-family="Arial, Helvetica, sans-serif">feature map / activation response</text></g><text x="1098" y="692" fill="#effef9" font-size="26" font-family="Arial, Helvetica, sans-serif">convolution  •  pooling  •  classification</text></svg>