<svg xmlns="http://www.w3.org/2000/svg" width="1600" height="900" aria-label="Database relational model cover"><defs><linearGradient id="a" x1="0" y1="0" x2="1" y2="1"><stop offset="0%" stop-color="#F8FBFF"/><stop offset="100%" stop-color="#EEF4FA"/></linearGradient><linearGradient id="d" x1="0" y1="0" x2="1" y2="1"><stop offset="0%" stop-color="#FFF"/><stop offset="100%" stop-color="#F5FAFF"/></linearGradient><linearGradient id="b" x1="0" y1="0" x2="1" y2="0"><stop offset="0%" stop-color="#0EA5A4"/><stop offset="100%" stop-color="#3B82F6"/></linearGradient><filter id="c" x="-20%" y="-20%" width="140%" height="160%"><feDropShadow dx="0" dy="4" stdDeviation="8" flood-color="#8AA0B8" flood-opacity=".22"/></filter></defs><path fill="url(#a)" d="M0 0h1600v900H0z"/><g opacity=".42" stroke="#D4DEE9"><path d="M0 120h1600M0 220h1600M0 320h1600M0 420h1600M0 520h1600M0 620h1600M0 720h1600M180 0v900M440 0v900M700 0v900M960 0v900M1220 0v900M1480 0v900"/></g><g stroke="url(#b)" stroke-width="3" fill="none" stroke-linecap="round" opacity=".88"><path d="M580 295h70M950 295h70M800 355v115M590 560h270M430 355c0 75 70 115 160 115M1170 355c0 75-70 115-160 115"/></g><g fill="#14B8A6" opacity=".9"><circle cx="650" cy="295" r="4"/><circle cx="950" cy="295" r="4"/><circle cx="800" cy="470" r="4"/><circle cx="590" cy="560" r="4"/><circle cx="860" cy="560" r="4"/></g><g filter="url(#c)" fill="url(#d)" stroke-opacity=".95"><rect x="280" y="190" width="300" height="165" rx="16" stroke="#93C5FD"/><rect x="650" y="190" width="300" height="165" rx="16" stroke="#93C5FD"/><rect x="1020" y="190" width="300" height="165" rx="16" stroke="#93C5FD"/><rect x="440" y="470" width="300" height="165" rx="16" stroke="#5EEAD4"/><rect x="860" y="470" width="300" height="165" rx="16" stroke="#5EEAD4"/></g><g font-family="Inter, Segoe UI, PingFang SC, Microsoft YaHei, sans-serif" fill="#1F2937"><text x="306" y="232" font-size="28" font-weight="700">MOVIES</text><text x="306" y="266" font-size="18" opacity=".78">title · year · length</text><text x="306" y="294" font-size="18" opacity=".78">genre · studioName</text><text x="306" y="322" font-size="18" opacity=".78">producerCert</text><text x="676" y="232" font-size="28" font-weight="700">MOVIESTAR</text><text x="676" y="266" font-size="18" opacity=".78">name · address</text><text x="676" y="294" font-size="18" opacity=".78">gender · birthdate</text><text x="1046" y="232" font-size="28" font-weight="700">MOVIEEXEC</text><text x="1046" y="266" font-size="18" opacity=".78">cert · name</text><text x="1046" y="294" font-size="18" opacity=".78">address · netWorth</text><text x="466" y="512" font-size="28" font-weight="700">STARSIN</text><text x="466" y="546" font-size="18" opacity=".78">movieTitle · movieYear</text><text x="466" y="574" font-size="18" opacity=".78">starName</text><text x="886" y="512" font-size="28" font-weight="700">STUDIO</text><text x="886" y="546" font-size="18" opacity=".78">name · address</text><text x="886" y="574" font-size="18" opacity=".78">presCert</text></g></svg>