<svg xmlns="http://www.w3.org/2000/svg" viewBox="0 0 1600 900" aria-labelledby="title desc"><defs><linearGradient id="a" x1="0" x2="1" y1="0" y2="1"><stop offset="0%" stop-color="#102028"/><stop offset="50%" stop-color="#245563"/><stop offset="100%" stop-color="#8ad8bc"/></linearGradient></defs><path fill="url(#a)" d="M0 0h1600v900H0z"/><rect x="64" y="72" width="1472" height="756" rx="36" fill="#10282d" fill-opacity=".24" stroke="#c7efe2" stroke-opacity=".18"/><rect x="108" y="104" width="870" height="170" rx="32" fill="#12363d" fill-opacity=".74" stroke="#c8f2e4" stroke-opacity=".24"/><text x="148" y="172" fill="#f5fffc" font-size="66" font-weight="700" font-family="Arial, Helvetica, sans-serif">Data Structure Introduction</text><text x="148" y="224" fill="#c8efe3" font-size="28" font-family="Arial, Helvetica, sans-serif">data  •  data element  •  logical structure  •  storage and operations</text><g transform="translate(126 334)"><rect width="300" height="300" rx="30" fill="#ecfbf7" opacity=".96"/><text x="32" y="54" fill="#264f58" font-size="28" font-family="Arial, Helvetica, sans-serif">set</text><g fill="#72ccb8"><circle cx="88" cy="126" r="28"/><circle cx="188" cy="146" r="28" opacity=".82"/><circle cx="138" cy="228" r="28" opacity=".7"/></g><text x="32" y="344" fill="#dff8ef" font-size="26" font-family="Arial, Helvetica, sans-serif">elements with no order relation</text></g><g transform="translate(478 334)"><rect width="300" height="300" rx="30" fill="#ecfbf7" opacity=".96"/><text x="32" y="54" fill="#264f58" font-size="28" font-family="Arial, Helvetica, sans-serif">linear structure</text><path d="M64 168h172" stroke="#5ba7c8" stroke-width="8" stroke-linecap="round" fill="none"/><g fill="#5db9ad"><circle cx="80" cy="168" r="22"/><circle cx="150" cy="168" r="22"/><circle cx="220" cy="168" r="22"/></g><text x="32" y="344" fill="#dff8ef" font-size="26" font-family="Arial, Helvetica, sans-serif">one-to-one predecessor / successor</text></g><g transform="translate(830 334)"><rect width="300" height="300" rx="30" fill="#ecfbf7" opacity=".96"/><text x="32" y="54" fill="#264f58" font-size="28" font-family="Arial, Helvetica, sans-serif">tree</text><g stroke="#6dcab1" stroke-width="8" stroke-linecap="round" fill="none"><path d="m150 92-58 70M150 92l58 70M92 162l-30 68M92 162l30 68M208 162l-30 68M208 162l30 68"/></g><g fill="#5ba7c8"><circle cx="150" cy="92" r="22"/><circle cx="92" cy="162" r="20"/><circle cx="208" cy="162" r="20"/><circle cx="62" cy="230" r="18"/><circle cx="122" cy="230" r="18"/><circle cx="178" cy="230" r="18"/><circle cx="238" cy="230" r="18"/></g><text x="32" y="344" fill="#dff8ef" font-size="26" font-family="Arial, Helvetica, sans-serif">one-to-many hierarchy</text></g><g transform="translate(1182 334)"><rect width="300" height="300" rx="30" fill="#ecfbf7" opacity=".96"/><text x="32" y="54" fill="#264f58" font-size="28" font-family="Arial, Helvetica, sans-serif">graph</text><g stroke="#76cdb7" stroke-width="8" stroke-linecap="round" fill="none"><path d="m84 104 118-10M84 104l44 110M202 94l26 114M128 214l100-6M84 104l144 104M202 94l-74 120"/></g><g fill="#5ba7c8"><circle cx="84" cy="104" r="22"/><circle cx="202" cy="94" r="22"/><circle cx="128" cy="214" r="22"/><circle cx="228" cy="208" r="22"/></g><text x="32" y="344" fill="#dff8ef" font-size="26" font-family="Arial, Helvetica, sans-serif">many-to-many relationships</text></g></svg>