<svg xmlns="http://www.w3.org/2000/svg" viewBox="0 0 1600 900" aria-labelledby="title desc"><defs><linearGradient id="a" x1="0" x2="1" y1="0" y2="1"><stop offset="0%" stop-color="#0f172a"/><stop offset="50%" stop-color="#0f766e"/><stop offset="100%" stop-color="#14b8a6"/></linearGradient></defs><path fill="url(#a)" d="M0 0h1600v900H0z"/><rect x="70" y="80" width="1460" height="740" rx="34" fill="#071b1a" fill-opacity=".38" stroke="#99f6e4" stroke-opacity=".26"/><text x="110" y="170" fill="#f0fdfa" font-size="68" font-weight="700" font-family="Arial, Helvetica, sans-serif">Database Fundamentals</text><text x="112" y="220" fill="#99f6e4" font-size="28" font-family="Arial, Helvetica, sans-serif">data model  •  relational tables  •  primary keys  •  SQL</text><g transform="translate(150 280)" font-family="Arial, Helvetica, sans-serif"><rect width="320" height="280" rx="24" fill="#ecfeff" opacity=".96"/><rect width="320" height="64" rx="24" fill="#0f766e"/><text x="28" y="42" fill="#f0fdfa" font-size="28">Student</text><text x="28" y="110" fill="#134e4a" font-size="24">PK  student_id</text><text x="28" y="156" fill="#134e4a" font-size="24">name</text><text x="28" y="202" fill="#134e4a" font-size="24">gender</text><text x="28" y="248" fill="#134e4a" font-size="24">major_id</text><path stroke="#99f6e4" d="M18 126h284M18 172h284M18 218h284"/><g transform="translate(470 40)"><rect width="320" height="230" rx="24" fill="#ecfeff" opacity=".96"/><rect width="320" height="64" rx="24" fill="#0f766e"/><text x="28" y="42" fill="#f0fdfa" font-size="28">Major</text><text x="28" y="110" fill="#134e4a" font-size="24">PK  major_id</text><text x="28" y="156" fill="#134e4a" font-size="24">major_name</text><text x="28" y="202" fill="#134e4a" font-size="24">department</text><path stroke="#99f6e4" d="M18 126h284M18 172h284"/></g><g transform="translate(940 110)"><rect width="320" height="250" rx="24" fill="#ecfeff" opacity=".96"/><rect width="320" height="64" rx="24" fill="#0f766e"/><text x="28" y="42" fill="#f0fdfa" font-size="28">Course</text><text x="28" y="110" fill="#134e4a" font-size="24">PK  course_id</text><text x="28" y="156" fill="#134e4a" font-size="24">course_name</text><text x="28" y="202" fill="#134e4a" font-size="24">credit</text><text x="28" y="248" fill="#134e4a" font-size="24">teacher</text><path stroke="#99f6e4" d="M18 126h284M18 172h284M18 218h284"/></g><path d="M320 190c70 0 80-35 150-35M790 195c70 0 85 40 150 40" fill="none" stroke="#99f6e4" stroke-width="8" stroke-linecap="round"/><circle cx="320" cy="190" r="10" fill="#ccfbf1"/><circle cx="470" cy="155" r="10" fill="#ccfbf1"/><circle cx="790" cy="195" r="10" fill="#ccfbf1"/><circle cx="940" cy="235" r="10" fill="#ccfbf1"/></g><text x="150" y="760" fill="#ccfbf1" font-size="28" font-family="Arial, Helvetica, sans-serif">organized data, relations between entities, lower redundancy, better queryability</text></svg>