<svg xmlns="http://www.w3.org/2000/svg" viewBox="0 0 1600 900" aria-labelledby="title desc"><defs><linearGradient id="a" x1="0" x2="1" y1="0" y2="1"><stop offset="0%" stop-color="#0f1f27"/><stop offset="55%" stop-color="#245e66"/><stop offset="100%" stop-color="#87d6b4"/></linearGradient><linearGradient id="b" x1="0" x2="1"><stop offset="0%" stop-color="#ecfcf7" stop-opacity=".96"/><stop offset="100%" stop-color="#dcf1f5" stop-opacity=".93"/></linearGradient></defs><path fill="url(#a)" d="M0 0h1600v900H0z"/><rect x="64" y="72" width="1472" height="756" rx="36" fill="#10272d" fill-opacity=".24" stroke="#c6efe0" stroke-opacity=".18"/><rect x="108" y="104" width="808" height="156" rx="30" fill="#12363d" fill-opacity=".72" stroke="#c8f2e4" stroke-opacity=".24"/><text x="148" y="174" fill="#f5fffc" font-size="72" font-weight="700" font-family="Arial, Helvetica, sans-serif">DETR</text><text x="148" y="223" fill="#c6eee1" font-size="28" font-family="Arial, Helvetica, sans-serif">set prediction  →  object queries  →  end-to-end detection</text><g transform="translate(118 288)"><rect width="426" height="360" rx="32" fill="url(#b)"/><rect x="38" y="42" width="174" height="146" rx="24" fill="#d8f3f2"/><rect x="212" y="64" width="156" height="112" rx="22" fill="#d8f0e7"/><rect x="84" y="216" width="236" height="102" rx="22" fill="#d9edf7"/><rect x="30" y="34" width="190" height="162" rx="28" fill="none" stroke="#5ba7c8" stroke-width="9"/><rect x="200" y="54" width="178" height="132" rx="24" fill="none" stroke="#69bea6" stroke-width="9"/><rect x="72" y="204" width="252" height="126" rx="24" fill="none" stroke="#77cbb7" stroke-width="9"/><text x="30" y="404" fill="#2f5f67" font-size="26" font-family="Arial, Helvetica, sans-serif">image features with object boxes</text></g><g stroke="#c7eee3" stroke-width="10" stroke-linecap="round" fill="none" opacity=".8"><path d="M578 468h170M1100 468h152"/></g><g transform="translate(760 258)"><rect width="318" height="390" rx="32" fill="#0f3035" fill-opacity=".9" stroke="#97e1d1" stroke-opacity=".34"/><rect x="34" y="42" width="250" height="82" rx="20" fill="#5d97b3"/><rect x="34" y="148" width="250" height="82" rx="20" fill="#5eafa8"/><rect x="34" y="254" width="250" height="82" rx="20" fill="#78c7b1"/><text x="159" y="93" text-anchor="middle" fill="#f5fffc" font-size="24" font-family="Arial, Helvetica, sans-serif">CNN Backbone</text><text x="159" y="199" text-anchor="middle" fill="#f5fffc" font-size="24" font-family="Arial, Helvetica, sans-serif">Transformer Encoder</text><text x="159" y="305" text-anchor="middle" fill="#f5fffc" font-size="24" font-family="Arial, Helvetica, sans-serif">Decoder + Queries</text><g fill="#d8f6ee"><circle cx="64" cy="358" r="14"/><circle cx="106" cy="358" r="14"/><circle cx="148" cy="358" r="14"/><circle cx="190" cy="358" r="14"/><circle cx="232" cy="358" r="14"/></g><text x="34" y="422" fill="#d8f6ee" font-size="25" font-family="Arial, Helvetica, sans-serif">100 learned object queries</text></g><g transform="translate(1266 294)"><rect width="218" height="354" rx="28" fill="#12363d" fill-opacity=".86" stroke="#97e1d1" stroke-opacity=".34"/><text x="30" y="62" fill="#edfdfa" font-size="24" font-family="Arial, Helvetica, sans-serif">matched predictions</text><rect x="30" y="98" width="160" height="56" rx="14" fill="#77cbb7"/><rect x="30" y="178" width="160" height="56" rx="14" fill="#5eb0a8"/><rect x="30" y="258" width="160" height="56" rx="14" fill="#5ba7c8"/><text x="110" y="132" text-anchor="middle" fill="#f7fffd" font-size="22" font-family="Arial, Helvetica, sans-serif">query 12 → person</text><text x="110" y="212" text-anchor="middle" fill="#f7fffd" font-size="22" font-family="Arial, Helvetica, sans-serif">query 34 → dog</text><text x="110" y="292" text-anchor="middle" fill="#f7fffd" font-size="22" font-family="Arial, Helvetica, sans-serif">query 57 → sofa</text></g></svg>