<svg xmlns="http://www.w3.org/2000/svg" viewBox="0 0 1600 900" aria-labelledby="title desc"><defs><linearGradient id="a" x1="0" x2="1" y1="0" y2="1"><stop offset="0%" stop-color="#0f172a"/><stop offset="60%" stop-color="#1d4ed8"/><stop offset="100%" stop-color="#38bdf8"/></linearGradient><linearGradient id="c" x1="0" x2="1"><stop offset="0%" stop-color="#0b1226" stop-opacity=".9"/><stop offset="100%" stop-color="#12213f" stop-opacity=".8"/></linearGradient><filter id="b" x="-20%" y="-20%" width="140%" height="140%"><feDropShadow dx="0" dy="18" stdDeviation="18" flood-color="#020617" flood-opacity=".35"/></filter></defs><path fill="url(#a)" d="M0 0h1600v900H0z"/><circle cx="1310" cy="120" r="230" fill="#93c5fd" opacity=".13"/><circle cx="1450" cy="760" r="260" fill="#67e8f9" opacity=".12"/><g filter="url(#b)"><rect x="70" y="80" width="1460" height="740" rx="34" fill="url(#c)" stroke="#93c5fd" stroke-opacity=".24"/></g><text x="110" y="170" fill="#e0f2fe" font-size="72" font-weight="700" font-family="Arial, Helvetica, sans-serif">MNIST MLP Classifier</text><text x="112" y="220" fill="#bfdbfe" font-size="28" font-family="Arial, Helvetica, sans-serif">input pixels  →  hidden layers  →  digit probabilities</text><g font-family="Arial, Helvetica, sans-serif" text-anchor="middle"><g transform="translate(165 315)"><rect x="-48" y="-48" width="96" height="96" rx="18" fill="#eff6ff" opacity=".96"/><text y="18" font-size="66" font-weight="700" fill="#1e3a8a">5</text></g><g transform="translate(290 315)"><rect x="-48" y="-48" width="96" height="96" rx="18" fill="#eff6ff" opacity=".96"/><text y="18" font-size="66" font-weight="700" fill="#1e40af">8</text></g><g transform="translate(415 315)"><rect x="-48" y="-48" width="96" height="96" rx="18" fill="#eff6ff" opacity=".96"/><text y="18" font-size="66" font-weight="700" fill="#1d4ed8">3</text></g></g><g stroke="#93c5fd" stroke-opacity=".5"><path d="m520 320 130-60M520 320l130 20M520 320l130 100M520 320l130 180M520 320l130 260M740 260l130 40M740 260l130 140M740 340l130-40M740 340l130 60M740 420l130-120M740 420l130-20M740 500l130-200M740 500l130-100M740 580l130-280M740 580l130-180M960 300l180-50M960 300l180 20M960 300l180 90M960 400l180 70M960 400l180 140M960 400l180 210"/></g><g fill="#e0f2fe"><circle cx="695" cy="260" r="44"/><circle cx="695" cy="340" r="44"/><circle cx="695" cy="420" r="44"/><circle cx="695" cy="500" r="44"/><circle cx="695" cy="580" r="44"/><circle cx="915" cy="300" r="48"/><circle cx="915" cy="400" r="48"/></g><g font-family="Arial, Helvetica, sans-serif" font-size="28" fill="#1e3a8a" text-anchor="middle"><text x="695" y="270">784</text><text x="695" y="350">512</text><text x="695" y="430">256</text><text x="695" y="510">128</text><text x="695" y="590">64</text><text x="915" y="310">ReLU</text><text x="915" y="410">Dropout</text></g><g font-family="Arial, Helvetica, sans-serif"><text x="1140" y="210" fill="#dbeafe" font-size="26">softmax output</text><g fill="#93c5fd"><rect x="1140" y="240" width="210" height="24" rx="12"/><rect x="1140" y="310" width="120" height="24" rx="12" opacity=".72"/><rect x="1140" y="380" width="150" height="24" rx="12" opacity=".78"/><rect x="1140" y="450" width="84" height="24" rx="12" opacity=".62"/><rect x="1140" y="520" width="60" height="24" rx="12" opacity=".5"/><rect x="1140" y="590" width="42" height="24" rx="12" opacity=".42"/></g><text x="1375" y="260" fill="#e0f2fe" font-size="26">digit 5</text><text x="1285" y="330" fill="#bfdbfe" font-size="23">digit 8</text><text x="1315" y="400" fill="#bfdbfe" font-size="23">digit 3</text><text x="1250" y="470" fill="#bfdbfe" font-size="23">digit 1</text><text x="1220" y="540" fill="#bfdbfe" font-size="23">digit 7</text><text x="1205" y="610" fill="#bfdbfe" font-size="23">other</text></g></svg>