<svg xmlns="http://www.w3.org/2000/svg" viewBox="0 0 1600 900" aria-labelledby="title desc"><defs><linearGradient id="a" x1="0" x2="1" y1="0" y2="1"><stop offset="0%" stop-color="#101f28"/><stop offset="52%" stop-color="#225765"/><stop offset="100%" stop-color="#8bd9bd"/></linearGradient><linearGradient id="b" x1="0" x2="1"><stop offset="0%" stop-color="#9fe2d3"/><stop offset="100%" stop-color="#67b4ce"/></linearGradient></defs><path fill="url(#a)" d="M0 0h1600v900H0z"/><rect x="64" y="72" width="1472" height="756" rx="36" fill="#10282d" fill-opacity=".24" stroke="#c7efe2" stroke-opacity=".18"/><rect x="108" y="104" width="1012" height="170" rx="32" fill="#12363d" fill-opacity=".74" stroke="#c8f2e4" stroke-opacity=".24"/><text x="148" y="172" fill="#f5fffc" font-size="66" font-weight="700" font-family="Arial, Helvetica, sans-serif">Pthread Parallel sin(x)</text><text x="148" y="224" fill="#c8efe3" font-size="28" font-family="Arial, Helvetica, sans-serif">Taylor series  •  cyclic partition  •  mutex / atomic / reduction comparison</text><g transform="translate(118 332)"><rect width="580" height="360" rx="32" fill="#10343a" fill-opacity=".84" stroke="#9be3d4" stroke-opacity=".28"/><path d="M24 218C76 156 128 92 180 92s104 208 156 208 104-168 156-168c28 0 50 38 64 62" fill="none" stroke="url(#b)" stroke-width="12" stroke-linecap="round"/><path d="M24 252c52-62 104-126 156-126s104 208 156 208 104-168 156-168c28 0 50 38 64 62" fill="none" stroke="#5a90b4" stroke-width="5" stroke-linecap="round" opacity=".62"/><path stroke="#7cc5bb" stroke-width="3" stroke-dasharray="10 12" opacity=".45" d="M24 300h532"/><text x="28" y="58" fill="#effef9" font-size="28" font-family="Arial, Helvetica, sans-serif">sin(x) from Taylor series</text><text x="28" y="340" fill="#d8f7ee" font-size="24" font-family="Arial, Helvetica, sans-serif">threads split the summation terms, then merge partial sums</text></g><g transform="translate(760 332)"><rect width="316" height="360" rx="32" fill="#113238" fill-opacity=".88" stroke="#9be3d4" stroke-opacity=".3"/><text x="34" y="58" fill="#f5fffc" font-size="28" font-family="Arial, Helvetica, sans-serif">sync strategies</text><rect x="34" y="92" width="248" height="58" rx="16" fill="#5ba7c8"/><rect x="34" y="172" width="248" height="58" rx="16" fill="#5db9ad"/><rect x="34" y="252" width="248" height="58" rx="16" fill="#83d4ba"/><text x="158" y="128" text-anchor="middle" fill="#f6fffd" font-size="22" font-family="Arial, Helvetica, sans-serif">global mutex</text><text x="158" y="208" text-anchor="middle" fill="#f6fffd" font-size="22" font-family="Arial, Helvetica, sans-serif">local sum + merge</text><text x="158" y="288" text-anchor="middle" fill="#f6fffd" font-size="22" font-family="Arial, Helvetica, sans-serif">false sharing check</text></g><g transform="translate(1116 332)"><rect width="368" height="360" rx="32" fill="#113238" fill-opacity=".88" stroke="#9be3d4" stroke-opacity=".3"/><g stroke="#d8f7ee" stroke-width="6" stroke-linecap="round"><path opacity=".28" d="M46 286h274"/><path d="M78 252V118M166 252V150M254 252V98"/></g><rect x="50" y="174" width="56" height="112" rx="14" fill="#7bcfb8"/><rect x="138" y="202" width="56" height="84" rx="14" fill="#5db9ad"/><rect x="226" y="146" width="56" height="140" rx="14" fill="#5ba7c8"/><text x="46" y="58" fill="#f5fffc" font-size="28" font-family="Arial, Helvetica, sans-serif">runtime profile</text><text x="46" y="330" fill="#d8f7ee" font-size="24" font-family="Arial, Helvetica, sans-serif">compare speedup and overhead</text></g></svg>