<svg xmlns="http://www.w3.org/2000/svg" viewBox="0 0 1600 900" aria-labelledby="title desc"><defs><linearGradient id="a" x1="0" x2="1" y1="0" y2="1"><stop offset="0%" stop-color="#111827"/><stop offset="50%" stop-color="#1e3a8a"/><stop offset="100%" stop-color="#06b6d4"/></linearGradient></defs><path fill="url(#a)" d="M0 0h1600v900H0z"/><rect x="70" y="80" width="1460" height="740" rx="34" fill="#07111f" fill-opacity=".34" stroke="#a5f3fc" stroke-opacity=".25"/><text x="110" y="170" fill="#ecfeff" font-size="72" font-weight="700" font-family="Arial, Helvetica, sans-serif">RNN Basics</text><text x="112" y="220" fill="#a5f3fc" font-size="28" font-family="Arial, Helvetica, sans-serif">sequence input  →  hidden state memory  →  time-step unfolding</text><g stroke="#67e8f9" stroke-width="8" stroke-linecap="round" fill="none"><path d="M230 520c30-50 70-50 100 0M500 520c30-50 70-50 100 0M770 520c30-50 70-50 100 0M1040 520c30-50 70-50 100 0"/></g><g transform="translate(140 300)"><rect x="40" y="220" width="200" height="150" rx="28" fill="#0f172a" stroke="#67e8f9" stroke-opacity=".4"/><rect x="310" y="220" width="200" height="150" rx="28" fill="#0f172a" stroke="#67e8f9" stroke-opacity=".4"/><rect x="580" y="220" width="200" height="150" rx="28" fill="#0f172a" stroke="#67e8f9" stroke-opacity=".4"/><rect x="850" y="220" width="200" height="150" rx="28" fill="#0f172a" stroke="#67e8f9" stroke-opacity=".4"/><text x="140" y="306" text-anchor="middle" fill="#ecfeff" font-size="36" font-family="Arial, Helvetica, sans-serif">RNN Cell</text><text x="410" y="306" text-anchor="middle" fill="#ecfeff" font-size="36" font-family="Arial, Helvetica, sans-serif">RNN Cell</text><text x="680" y="306" text-anchor="middle" fill="#ecfeff" font-size="36" font-family="Arial, Helvetica, sans-serif">RNN Cell</text><text x="950" y="306" text-anchor="middle" fill="#ecfeff" font-size="36" font-family="Arial, Helvetica, sans-serif">RNN Cell</text></g><g fill="#cffafe" font-family="Arial, Helvetica, sans-serif" font-size="26" text-anchor="middle" transform="translate(140 300)"><circle cx="140" cy="440" r="28" fill="#22d3ee"/><circle cx="410" cy="440" r="28" fill="#22d3ee"/><circle cx="680" cy="440" r="28" fill="#22d3ee"/><circle cx="950" cy="440" r="28" fill="#22d3ee"/><text x="140" y="449">x₁</text><text x="410" y="449">x₂</text><text x="680" y="449">x₃</text><text x="950" y="449">x₄</text></g><g fill="#dbeafe" font-family="Arial, Helvetica, sans-serif" font-size="26" text-anchor="middle" transform="translate(140 300)"><circle cx="140" cy="120" r="28" fill="#60a5fa"/><circle cx="410" cy="120" r="28" fill="#60a5fa"/><circle cx="680" cy="120" r="28" fill="#60a5fa"/><circle cx="950" cy="120" r="28" fill="#60a5fa"/><text x="140" y="129">h₁</text><text x="410" y="129">h₂</text><text x="680" y="129">h₃</text><text x="950" y="129">h₄</text></g><g stroke="#a5f3fc" stroke-width="10" stroke-linecap="round" fill="none"><path d="M308 420h214M578 420h214M848 420h214"/></g><g fill="#a5f3fc" font-size="24" font-family="Arial, Helvetica, sans-serif"><text x="224" y="90" transform="translate(140 300)">hidden state transfer</text><text x="1015" y="310" transform="translate(140 300)">…</text></g><text x="140" y="760" fill="#cffafe" font-size="28" font-family="Arial, Helvetica, sans-serif">shared weights across time steps, sequence modeling, temporal dependency</text></svg>