<svg xmlns="http://www.w3.org/2000/svg" viewBox="0 0 1600 900" aria-labelledby="title desc"><defs><linearGradient id="a" x1="0" x2="1" y1="0" y2="1"><stop offset="0%" stop-color="#10212a"/><stop offset="55%" stop-color="#24515e"/><stop offset="100%" stop-color="#87d6b4"/></linearGradient></defs><path fill="url(#a)" d="M0 0h1600v900H0z"/><rect x="64" y="72" width="1472" height="756" rx="36" fill="#10282d" fill-opacity=".24" stroke="#c6efe0" stroke-opacity=".18"/><rect x="108" y="104" width="826" height="156" rx="30" fill="#12363d" fill-opacity=".72" stroke="#c8f2e4" stroke-opacity=".24"/><text x="148" y="174" fill="#f5fffc" font-size="72" font-weight="700" font-family="Arial, Helvetica, sans-serif">SMPL Basics</text><text x="148" y="223" fill="#c7eee2" font-size="28" font-family="Arial, Helvetica, sans-serif">shape β  •  pose θ  •  differentiable 3D human model</text><g transform="translate(176 264)"><rect x="-26" y="-18" width="372" height="458" rx="30" fill="#113238" fill-opacity=".74" stroke="#a7e6d9" stroke-opacity=".24"/><path d="M210 24c-50 2-80 46-78 86 2 43 28 70 36 115 10 61 0 119-22 173-20 50-26 108-8 162 22 64 54 70 70 28 20-54 22-120 18-170-2-22 0-48 10-68 10 21 12 46 10 68-4 50-2 116 18 170 16 42 48 36 70-28 18-54 12-112-8-162-22-54-32-112-22-173 8-45 34-72 36-115 2-40-28-84-78-86-8-16-16-24-26-24s-18 8-26 24Z" fill="#dff6ef" opacity=".94"/><path d="M236 44v110m-64-30h128M178 248h118M192 404l-30 142m118-142 30 142" fill="none" stroke="#5aa7c0" stroke-width="8" stroke-linecap="round"/><circle cx="236" cy="90" r="22" fill="#5aa7c0"/><circle cx="172" cy="124" r="14" fill="#5aa7c0"/><circle cx="300" cy="124" r="14" fill="#5aa7c0"/><circle cx="178" cy="248" r="14" fill="#5aa7c0"/><circle cx="296" cy="248" r="14" fill="#5aa7c0"/><circle cx="192" cy="404" r="14" fill="#5aa7c0"/><circle cx="280" cy="404" r="14" fill="#5aa7c0"/><text x="20" y="640" fill="#ddf8ef" font-size="26" font-family="Arial, Helvetica, sans-serif">human mesh + skeleton joints</text></g><g transform="translate(694 252)"><rect width="290" height="424" rx="30" fill="#113238" fill-opacity=".82" stroke="#9de4d4" stroke-opacity=".32"/><text x="34" y="58" fill="#f5fffc" font-size="30" font-family="Arial, Helvetica, sans-serif">shape parameters β</text><g fill="#dff6ef"><text x="34" y="122" font-size="22" font-family="Arial, Helvetica, sans-serif">height</text><rect x="34" y="136" width="220" height="14" rx="7" fill="#2f5861"/><rect x="34" y="136" width="164" height="14" rx="7" fill="#77cbb7"/><text x="34" y="202" font-size="22" font-family="Arial, Helvetica, sans-serif">shoulder width</text><rect x="34" y="216" width="220" height="14" rx="7" fill="#2f5861"/><rect x="34" y="216" width="142" height="14" rx="7" fill="#5ba7c8"/><text x="34" y="282" font-size="22" font-family="Arial, Helvetica, sans-serif">body mass</text><rect x="34" y="296" width="220" height="14" rx="7" fill="#2f5861"/><rect x="34" y="296" width="126" height="14" rx="7" fill="#68c3ae"/><text x="34" y="362" font-size="22" font-family="Arial, Helvetica, sans-serif">limb ratio</text><rect x="34" y="376" width="220" height="14" rx="7" fill="#2f5861"/><rect x="34" y="376" width="182" height="14" rx="7" fill="#8ad7c1"/></g></g><g transform="translate(1074 252)"><rect width="360" height="424" rx="30" fill="#113238" fill-opacity=".82" stroke="#9de4d4" stroke-opacity=".32"/><text x="34" y="58" fill="#f5fffc" font-size="30" font-family="Arial, Helvetica, sans-serif">pose parameters θ</text><g stroke="#79ccb9" stroke-width="8" stroke-linecap="round" fill="none"><path d="M180 110v80l-65 40M180 190l65 50M180 190l-20 110-28 84M180 190l34 110 32 84"/></g><g fill="#ddf8ef"><circle cx="180" cy="96" r="18"/><circle cx="180" cy="190" r="18"/><circle cx="115" cy="230" r="16"/><circle cx="245" cy="240" r="16"/><circle cx="160" cy="300" r="16"/><circle cx="214" cy="300" r="16"/><circle cx="132" cy="384" r="16"/><circle cx="246" cy="384" r="16"/></g><text x="34" y="452" fill="#ddf8ef" font-size="25" font-family="Arial, Helvetica, sans-serif">Rodrigues rotation at each joint</text></g></svg>