<svg xmlns="http://www.w3.org/2000/svg" viewBox="0 0 1600 900" aria-labelledby="title desc"><defs><linearGradient id="a" x1="0" x2="1" y1="0" y2="1"><stop offset="0%" stop-color="#102029"/><stop offset="50%" stop-color="#214f61"/><stop offset="100%" stop-color="#8cd7bc"/></linearGradient><linearGradient id="b" x1="0" x2="1"><stop offset="0%" stop-color="#7bd0be"/><stop offset="100%" stop-color="#78bcd8"/></linearGradient></defs><path fill="url(#a)" d="M0 0h1600v900H0z"/><rect x="64" y="72" width="1472" height="756" rx="36" fill="#10282d" fill-opacity=".24" stroke="#c7efe2" stroke-opacity=".18"/><rect x="108" y="104" width="836" height="156" rx="30" fill="#12363d" fill-opacity=".72" stroke="#c8f2e4" stroke-opacity=".24"/><text x="148" y="174" fill="#f5fffc" font-size="70" font-weight="700" font-family="Arial, Helvetica, sans-serif">Vision Transformer</text><text x="148" y="223" fill="#c7eee2" font-size="28" font-family="Arial, Helvetica, sans-serif">image patches  →  token sequence  →  global attention</text><g transform="translate(126 306)"><rect width="320" height="320" rx="30" fill="#ecfbf7" opacity=".96"/><rect width="320" height="320" rx="30" fill="none" stroke="#bedddc" stroke-width="3"/><g stroke="#9ab8bd" stroke-width="2"><path d="M80 0v320M160 0v320M240 0v320M0 80h320M0 160h320M0 240h320"/></g><g fill="#5ba7c8" opacity=".85"><path d="M0 0h80v80H0z"/><path opacity=".68" d="M160 0h80v80h-80z"/><path opacity=".8" d="M80 80h80v80H80z"/><path opacity=".56" d="M240 80h80v80h-80z"/><path opacity=".64" d="M0 160h80v80H0z"/><path opacity=".92" d="M160 160h80v80h-80z"/><path opacity=".68" d="M80 240h80v80H80z"/><path opacity=".88" d="M240 240h80v80h-80z"/></g><text x="18" y="366" fill="#dff8f0" font-size="26" font-family="Arial, Helvetica, sans-serif">16×16 patch grid</text></g><g stroke="#c5efe4" stroke-width="10" stroke-linecap="round" fill="none" opacity=".8"><path d="M472 468h172M1018 468h166"/></g><g transform="translate(632 270)"><rect y="136" width="310" height="116" rx="30" fill="#0f3035" stroke="#a8e8dc" stroke-opacity=".34"/><g fill="url(#b)"><rect x="24" y="32" width="96" height="68" rx="18"/><rect x="138" y="32" width="96" height="68" rx="18"/><rect x="252" y="32" width="96" height="68" rx="18"/><rect x="366" y="32" width="96" height="68" rx="18"/></g><text x="24" y="184" fill="#dcf7ef" font-size="26" font-family="Arial, Helvetica, sans-serif">[CLS]</text><text x="142" y="184" fill="#dcf7ef" font-size="26" font-family="Arial, Helvetica, sans-serif">x₁</text><text x="256" y="184" fill="#dcf7ef" font-size="26" font-family="Arial, Helvetica, sans-serif">x₂</text><text x="370" y="184" fill="#dcf7ef" font-size="26" font-family="Arial, Helvetica, sans-serif">xₙ</text><text x="20" y="278" fill="#dcf7ef" font-size="26" font-family="Arial, Helvetica, sans-serif">patch embedding + positional encoding</text></g><g transform="translate(1188 228)"><rect width="258" height="430" rx="32" fill="#113238" stroke="#98e2d4" stroke-opacity=".34"/><rect x="28" y="42" width="202" height="72" rx="18" fill="#5da7c4"/><rect x="28" y="136" width="202" height="72" rx="18" fill="#5cb7b2"/><rect x="28" y="230" width="202" height="72" rx="18" fill="#74cdb6"/><rect x="28" y="324" width="202" height="72" rx="18" fill="#87d6b4"/><text x="129" y="86" text-anchor="middle" fill="#f3fffc" font-size="24" font-family="Arial, Helvetica, sans-serif">Multi-Head Attention</text><text x="129" y="180" text-anchor="middle" fill="#f3fffc" font-size="24" font-family="Arial, Helvetica, sans-serif">MLP Block</text><text x="129" y="274" text-anchor="middle" fill="#f3fffc" font-size="24" font-family="Arial, Helvetica, sans-serif">Residual + LayerNorm</text><text x="129" y="368" text-anchor="middle" fill="#f3fffc" font-size="24" font-family="Arial, Helvetica, sans-serif">Classifier Head</text><text x="32" y="468" fill="#ddf8ef" font-size="26" font-family="Arial, Helvetica, sans-serif">global receptive field</text></g></svg>